<svg width="168" height="48" viewBox="0 0 168 48" fill="none" xmlns="http://www.w3.org/2000/svg">
<path fill-rule="evenodd" clip-rule="evenodd" d="M20.2655 3.4479C19.7605 3.34403 19.2396 3.34403 18.7345 3.4479C18.1507 3.56797 17.6289 3.86023 17.2141 4.09258L17.101 4.15574L3.04153 11.9666C3.00266 11.9882 2.96261 12.0102 2.92157 12.0328C2.48243 12.2747 1.93029 12.5788 1.50627 13.0389C1.13967 13.4368 0.862246 13.9082 0.692535 14.4219C0.49624 15.016 0.498537 15.6464 0.500363 16.1477C0.500534 16.1946 0.5007 16.2403 0.5007 16.2847V31.7067C0.5007 31.7511 0.500534 31.7969 0.500363 31.8437C0.498537 32.3451 0.49624 32.9754 0.692536 33.5695C0.862247 34.0832 1.13968 34.5547 1.50627 34.9525C1.93029 35.4126 2.48244 35.7167 2.92157 35.9586C2.96261 35.9812 3.00266 36.0033 3.04153 36.0249L17.101 43.8357L17.2141 43.8988C17.6289 44.1312 18.1507 44.4235 18.7345 44.5435C19.2396 44.6474 19.7605 44.6474 20.2655 44.5435C20.8493 44.4235 21.3711 44.1312 21.7859 43.8988L21.899 43.8357L35.9585 36.0249C35.9757 36.0153 35.9931 36.0057 36.0107 35.9959C36.0329 35.9837 36.0555 35.9712 36.0784 35.9586C36.5176 35.7167 37.0697 35.4126 37.4937 34.9525C37.8603 34.5547 38.1378 34.0832 38.3075 33.5695C38.5038 32.9754 38.5015 32.3451 38.4996 31.8437C38.4995 31.7969 38.4993 31.7511 38.4993 31.7067V16.2847C38.4993 16.2403 38.4995 16.1946 38.4996 16.1477C38.5015 15.6464 38.5038 15.016 38.3075 14.4219C38.1378 13.9082 37.8603 13.4367 37.4937 13.0389C37.0697 12.5788 36.5176 12.2747 36.0784 12.0328L36.0769 12.032C36.0364 12.0097 35.9968 11.9879 35.9585 11.9666L21.899 4.15574L21.7859 4.09257C21.3711 3.86022 20.8493 3.56797 20.2655 3.4479ZM18.9464 7.47742C19.2343 7.31746 19.3813 7.23664 19.4909 7.18376L19.5 7.17941L19.5091 7.18376C19.6187 7.23664 19.7657 7.31746 20.0536 7.47742L32.6871 14.496L19.4999 21.8222L6.31285 14.4961L18.9464 7.47742ZM4.30056 17.725L17.6 25.1136L17.6001 39.766L4.88691 32.7032C4.58301 32.5343 4.42785 32.4472 4.31899 32.3779L4.3098 32.372L4.30911 32.3611C4.30135 32.2323 4.30056 32.0543 4.30056 31.7067V17.725Z" fill="white"/>
<path d="M55.7911 30.3452H61.8391V33.9092H51.1741V14.9552H55.7911V30.3452Z" fill="white"/>
<path d="M66.0933 17.2772C65.2833 17.2772 64.6173 17.0432 64.0953 16.5752C63.5913 16.0892 63.3393 15.4952 63.3393 14.7932C63.3393 14.0732 63.5913 13.4792 64.0953 13.0112C64.6173 12.5252 65.2833 12.2822 66.0933 12.2822C66.8853 12.2822 67.5333 12.5252 68.0373 13.0112C68.5593 13.4792 68.8203 14.0732 68.8203 14.7932C68.8203 15.4952 68.5593 16.0892 68.0373 16.5752C67.5333 17.0432 66.8853 17.2772 66.0933 17.2772ZM68.3883 18.8432V33.9092H63.7713V18.8432H68.3883Z" fill="white"/>
<path d="M77.1882 18.6272C78.2502 18.6272 79.1772 18.8432 79.9692 19.2752C80.7792 19.7072 81.4002 20.2742 81.8321 20.9762V18.8432H86.4492V33.8822C86.4492 35.2682 86.1702 36.5192 85.6122 37.6352C85.0722 38.7692 84.2351 39.6692 83.1012 40.3352C81.9852 41.0012 80.5902 41.3342 78.9162 41.3342C76.6842 41.3342 74.8751 40.8032 73.4891 39.7412C72.1031 38.6972 71.3111 37.2752 71.1131 35.4752H75.6761C75.8201 36.0512 76.1621 36.5012 76.7022 36.8252C77.2422 37.1672 77.9081 37.3382 78.7001 37.3382C79.6542 37.3382 80.4102 37.0592 80.9682 36.5012C81.5442 35.9612 81.8321 35.0882 81.8321 33.8822V31.7492C81.3822 32.4512 80.7612 33.0272 79.9692 33.4772C79.1772 33.9092 78.2502 34.1252 77.1882 34.1252C75.9461 34.1252 74.8211 33.8102 73.8132 33.1802C72.8052 32.5322 72.0042 31.6232 71.4102 30.4532C70.8342 29.2652 70.5462 27.8972 70.5462 26.3492C70.5462 24.8012 70.8342 23.4422 71.4102 22.2722C72.0042 21.1022 72.8052 20.2022 73.8132 19.5722C74.8211 18.9422 75.9461 18.6272 77.1882 18.6272ZM81.8321 26.3762C81.8321 25.2242 81.5082 24.3152 80.8602 23.6492C80.2302 22.9832 79.4562 22.6502 78.5381 22.6502C77.6201 22.6502 76.8371 22.9832 76.1891 23.6492C75.5591 24.2972 75.2442 25.1972 75.2442 26.3492C75.2442 27.5012 75.5591 28.4192 76.1891 29.1032C76.8371 29.7692 77.6201 30.1022 78.5381 30.1022C79.4562 30.1022 80.2302 29.7692 80.8602 29.1032C81.5082 28.4372 81.8321 27.5282 81.8321 26.3762Z" fill="white"/>
<path d="M98.7803 18.6812C100.508 18.6812 101.894 19.2572 102.938 20.4092C103.982 21.5432 104.504 23.1092 104.504 25.1072V33.9092H99.9143V25.7282C99.9143 24.7202 99.6533 23.9372 99.1313 23.3792C98.6093 22.8212 97.9073 22.5422 97.0253 22.5422C96.1433 22.5422 95.4413 22.8212 94.9193 23.3792C94.3973 23.9372 94.1363 24.7202 94.1363 25.7282V33.9092H89.5193V13.9292H94.1363V20.8682C94.6043 20.2022 95.2433 19.6712 96.0533 19.2752C96.8633 18.8792 97.7723 18.6812 98.7803 18.6812Z" fill="white"/>
<path d="M115.84 29.9942V33.9092H113.491C111.817 33.9092 110.512 33.5042 109.576 32.6942C108.64 31.8662 108.172 30.5252 108.172 28.6712V22.6772H106.336V18.8432H108.172V15.1712H112.789V18.8432H115.813V22.6772H112.789V28.7252C112.789 29.1752 112.897 29.4992 113.113 29.6972C113.329 29.8952 113.689 29.9942 114.193 29.9942H115.84Z" fill="white"/>
<path d="M122.758 20.9762C123.19 20.2742 123.811 19.7072 124.621 19.2752C125.431 18.8432 126.358 18.6272 127.402 18.6272C128.644 18.6272 129.769 18.9422 130.777 19.5722C131.785 20.2022 132.577 21.1022 133.153 22.2722C133.747 23.4422 134.044 24.8012 134.044 26.3492C134.044 27.8972 133.747 29.2652 133.153 30.4532C132.577 31.6232 131.785 32.5322 130.777 33.1802C129.769 33.8102 128.644 34.1252 127.402 34.1252C126.34 34.1252 125.413 33.9182 124.621 33.5042C123.829 33.0722 123.208 32.5052 122.758 31.8032V33.9092H118.141V13.9292H122.758V20.9762ZM129.346 26.3492C129.346 25.1972 129.022 24.2972 128.374 23.6492C127.744 22.9832 126.961 22.6502 126.025 22.6502C125.107 22.6502 124.324 22.9832 123.676 23.6492C123.046 24.3152 122.731 25.2242 122.731 26.3762C122.731 27.5282 123.046 28.4372 123.676 29.1032C124.324 29.7692 125.107 30.1022 126.025 30.1022C126.943 30.1022 127.726 29.7692 128.374 29.1032C129.022 28.4192 129.346 27.5012 129.346 26.3492Z" fill="white"/>
<path d="M143.055 34.1252C141.579 34.1252 140.247 33.8102 139.059 33.1802C137.889 32.5502 136.962 31.6502 136.278 30.4802C135.612 29.3102 135.279 27.9422 135.279 26.3762C135.279 24.8282 135.621 23.4692 136.305 22.2992C136.989 21.1112 137.925 20.2022 139.113 19.5722C140.301 18.9422 141.633 18.6272 143.109 18.6272C144.585 18.6272 145.917 18.9422 147.105 19.5722C148.293 20.2022 149.229 21.1112 149.913 22.2992C150.597 23.4692 150.939 24.8282 150.939 26.3762C150.939 27.9242 150.588 29.2922 149.886 30.4802C149.202 31.6502 148.257 32.5502 147.051 33.1802C145.863 33.8102 144.531 34.1252 143.055 34.1252ZM143.055 30.1292C143.937 30.1292 144.684 29.8052 145.296 29.1572C145.926 28.5092 146.241 27.5822 146.241 26.3762C146.241 25.1702 145.935 24.2432 145.323 23.5952C144.729 22.9472 143.991 22.6232 143.109 22.6232C142.209 22.6232 141.462 22.9472 140.868 23.5952C140.274 24.2252 139.977 25.1522 139.977 26.3762C139.977 27.5822 140.265 28.5092 140.841 29.1572C141.435 29.8052 142.173 30.1292 143.055 30.1292Z" fill="white"/>
<path d="M162.028 33.9092L159.139 29.7242L156.709 33.9092H151.714L156.682 26.2142L151.579 18.8432H156.763L159.652 23.0012L162.082 18.8432H167.077L162.028 26.4302L167.212 33.9092H162.028Z" fill="white"/>
</svg>
