<svg width="34" height="34" viewBox="0 0 34 34" fill="none" xmlns="http://www.w3.org/2000/svg">
<path d="M32 17.1874C32 25.4716 25.2843 32.1874 17 32.1874C8.71573 32.1874 2 25.4716 2 17.1874C2 8.90311 8.71573 2.18738 17 2.18738C25.2843 2.18738 32 8.90311 32 17.1874Z" stroke="white" stroke-width="3"/>
<path d="M22.8336 23.0212C19.7682 26.0866 16.3081 28.0738 13.2514 28.8598C10.157 29.6555 7.77018 29.1709 6.39338 27.7941C5.01657 26.4173 4.53201 24.0305 5.32772 20.9361C6.11373 17.8794 8.10089 14.4194 11.1663 11.3539C14.2318 8.28844 17.6918 6.30128 20.7485 5.51527C23.843 4.71956 26.2298 5.20412 27.6066 6.58093C28.9834 7.95773 29.468 10.3445 28.6722 13.439C27.8862 16.4957 25.8991 19.9557 22.8336 23.0212Z" stroke="white" stroke-width="3"/>
<path d="M22.8334 11.3539C25.8989 14.4193 27.886 17.8794 28.672 20.9361C29.4678 24.0305 28.9832 26.4173 27.6064 27.7941C26.2296 29.1709 23.8428 29.6555 20.7483 28.8598C17.6916 28.0738 14.2316 26.0866 11.1662 23.0212C8.1007 19.9557 6.11354 16.4957 5.32753 13.439C4.53181 10.3445 5.01638 7.95773 6.39318 6.58092C7.76999 5.20411 10.1568 4.71955 13.2512 5.51526C16.3079 6.30127 19.768 8.28844 22.8334 11.3539Z" stroke="white" stroke-width="3"/>
</svg>
