<svg width="34" height="34" viewBox="0 0 34 34" fill="none" xmlns="http://www.w3.org/2000/svg">
<g clip-path="url(#clip0_440_431)">
<path d="M20.577 2.09127L17.4114 1.24304L14.7438 11.199L12.3353 2.2107L9.16966 3.05893L11.7718 12.7702L5.29043 6.28881L2.97304 8.6062L10.0823 15.7155L1.22884 13.3432L0.380615 16.5088L10.0541 19.1008C9.94339 18.6232 9.88479 18.1254 9.88479 17.614C9.88479 13.994 12.8194 11.0594 16.4394 11.0594C20.0594 11.0594 22.994 13.994 22.994 17.614C22.994 18.1221 22.9361 18.6168 22.8267 19.0917L31.6182 21.4473L32.4664 18.2817L22.7544 15.6794L31.6085 13.3069L30.7602 10.1413L21.0486 12.7435L27.53 6.2622L25.2126 3.9448L18.2019 10.9555L20.577 2.09127Z" fill="white"/>
<path d="M22.8175 19.1285C22.5461 20.276 21.9731 21.3068 21.1869 22.1327L27.5559 28.5017L29.8733 26.1843L22.8175 19.1285Z" fill="white"/>
<path d="M21.1226 22.1992C20.3269 23.0119 19.3214 23.6184 18.1937 23.9309L20.5113 32.5802L23.6769 31.7319L21.1226 22.1992Z" fill="white"/>
<path d="M18.0755 23.9626C17.5523 24.0971 17.004 24.1686 16.4388 24.1686C15.8334 24.1686 15.2471 24.0865 14.6906 23.9328L12.3709 32.5899L15.5365 33.4381L18.0755 23.9626Z" fill="white"/>
<path d="M14.5786 23.9009C13.4682 23.5728 12.4806 22.9586 11.7011 22.1436L5.31644 28.5283L7.63384 30.8457L14.5786 23.9009Z" fill="white"/>
<path d="M11.6485 22.0872C10.8824 21.267 10.3244 20.25 10.0588 19.1202L1.23865 21.4836L2.08687 24.6492L11.6485 22.0872Z" fill="white"/>
</g>
<defs>
<clipPath id="clip0_440_431">
<rect width="33" height="33" fill="white" transform="translate(0.125 0.5)"/>
</clipPath>
</defs>
</svg>
