<svg width="30" height="34" viewBox="0 0 30 34" fill="none" xmlns="http://www.w3.org/2000/svg">
<path fill-rule="evenodd" clip-rule="evenodd" d="M15.4491 1.58589C15.0703 1.50799 14.6797 1.50799 14.3009 1.58589C13.863 1.67594 13.4717 1.89514 13.1606 2.0694L13.0758 2.11678L2.53115 7.9749C2.502 7.99109 2.47196 8.00764 2.44117 8.02459C2.11183 8.206 1.69771 8.43409 1.3797 8.77918C1.10476 9.07753 0.896684 9.43115 0.769402 9.81639C0.62218 10.262 0.623903 10.7347 0.625272 11.1107C0.6254 11.1459 0.625525 11.1802 0.625525 11.2135V22.78C0.625525 22.8133 0.6254 22.8476 0.625272 22.8828C0.623903 23.2588 0.62218 23.7315 0.769402 24.1771C0.896685 24.5624 1.10476 24.916 1.3797 25.2143C1.69772 25.5594 2.11183 25.7875 2.44118 25.9689C2.47196 25.9859 2.502 26.0024 2.53115 26.0186L13.0758 31.8767L13.1606 31.9241C13.4717 32.0984 13.863 32.3176 14.3009 32.4076C14.6797 32.4855 15.0703 32.4855 15.4491 32.4076C15.887 32.3176 16.2783 32.0984 16.5894 31.9241L16.6742 31.8767L27.2188 26.0186C27.2317 26.0115 27.2448 26.0042 27.258 25.9969C27.2747 25.9877 27.2916 25.9784 27.3088 25.9689C27.6382 25.7875 28.0523 25.5594 28.3703 25.2143C28.6452 24.916 28.8533 24.5624 28.9806 24.1771C29.1278 23.7315 29.1261 23.2588 29.1247 22.8828C29.1246 22.8476 29.1245 22.8133 29.1245 22.78V11.2135C29.1245 11.1802 29.1246 11.1459 29.1247 11.1108C29.1261 10.7347 29.1278 10.262 28.9806 9.81639C28.8533 9.43115 28.6452 9.07753 28.3703 8.77917C28.0523 8.43408 27.6382 8.20599 27.3088 8.02458L27.3077 8.02395C27.2773 8.00722 27.2476 7.99088 27.2188 7.97489L16.6742 2.11678L16.5894 2.0694C16.2783 1.89514 15.887 1.67594 15.4491 1.58589ZM14.4598 4.60803C14.6757 4.48807 14.786 4.42745 14.8682 4.38779L14.875 4.38453L14.8818 4.38779C14.964 4.42745 15.0743 4.48807 15.2902 4.60803L24.7653 9.87198L14.875 15.3666L4.98464 9.87201L14.4598 4.60803ZM3.47542 12.2937L13.45 17.8352L13.45 28.8245L3.91518 23.5274C3.68726 23.4007 3.57089 23.3354 3.48924 23.2834L3.48235 23.279L3.48183 23.2708C3.47601 23.1742 3.47542 23.0407 3.47542 22.78V12.2937Z" fill="white"/>
</svg>
