<svg width="33" height="34" viewBox="0 0 33 34" fill="none" xmlns="http://www.w3.org/2000/svg">
<path opacity="0.8" d="M27.2298 7.37237C26.9057 7.0482 26.5815 6.72404 26.2573 6.39987C25.2848 5.36255 24.2475 4.32522 22.9508 3.67689C21.4597 2.89889 19.8389 3.09339 18.218 3.09339C15.7544 3.09339 9.59525 3.09339 5.9646 3.09339L8.42826 6.39987C12.9017 6.39987 19.9037 6.39987 23.1453 6.39987C24.5068 6.39987 25.6738 6.65921 26.776 7.37237C26.9705 7.4372 27.165 7.4372 27.2298 7.37237Z" fill="white"/>
<path opacity="0.9" d="M29.9528 12.6888C29.6286 12.3646 29.3045 12.0404 28.9803 11.7163C28.0078 10.6789 26.9705 9.64162 25.6738 8.99329C24.1827 8.21529 22.5618 8.4098 20.941 8.4098C18.8015 8.4098 13.6797 8.4098 10.0491 8.4098L12.5127 11.7163C16.9214 11.7163 22.9508 11.7163 25.9332 11.7163C27.2947 11.7163 28.4617 11.9756 29.5638 12.6888C29.6935 12.7536 29.8231 12.7536 29.9528 12.6888Z" fill="white"/>
<path d="M33 17.8752C32.6758 17.551 32.3516 17.2268 32.0275 16.9027C31.055 15.8654 30.0177 14.828 28.721 14.1797C27.2298 13.4017 25.609 13.5962 23.9882 13.5962C21.9784 13.5962 17.5697 13.5962 14.0039 13.5962L16.4676 16.9027C20.7465 16.9027 26.1925 16.9027 28.9155 16.9027C30.277 16.9027 31.444 17.162 32.5461 17.8752C32.7406 17.94 32.8703 18.0048 33 17.8752Z" fill="white"/>
<path opacity="0.8" d="M5.70532 26.6276C6.02949 26.9518 6.35365 27.2759 6.67782 27.6001C7.65031 28.6374 8.68764 29.6747 9.9843 30.3231C11.4755 31.1011 13.0963 30.9066 14.7171 30.9066H26.9706L24.5069 27.6001C20.0334 27.6001 13.0315 27.6001 9.7898 27.6001C8.42831 27.6001 7.26131 27.3408 6.15915 26.6276C5.96465 26.5628 5.83499 26.5628 5.70532 26.6276Z" fill="white"/>
<path opacity="0.9" d="M2.98242 21.3116C3.30659 21.6357 3.63075 21.9599 3.95492 22.2841C4.92741 23.3214 5.96473 24.3587 7.26139 25.0071C8.75255 25.7851 10.3734 25.5905 11.9942 25.5905H22.8862L20.4225 22.2841C16.0139 22.2841 9.98439 22.2841 7.00207 22.2841C5.64057 22.2841 4.47358 22.0247 3.37141 21.3116C3.24175 21.2467 3.11209 21.2467 2.98242 21.3116Z" fill="white"/>
<path d="M0 16.0599C0.324165 16.384 0.64833 16.7082 0.972495 17.0324C1.94499 18.0697 2.98232 19.107 4.27898 19.7553C5.77014 20.5333 7.39096 20.3388 9.01179 20.3388H18.9961L16.5324 17.0324C12.2534 17.0324 6.80747 17.0324 4.08448 17.0324C2.72299 17.0324 1.55599 16.773 0.453829 16.0599C0.25933 15.995 0.129666 15.995 0 16.0599Z" fill="white"/>
</svg>
